<?xml version="1.0" encoding="UTF-8" standalone="no"?>
<!-- Created with Inkscape (http://www.inkscape.org/) -->

<svg
   xmlns:dc="http://purl.org/dc/elements/1.1/"
   xmlns:cc="http://creativecommons.org/ns#"
   xmlns:rdf="http://www.w3.org/1999/02/22-rdf-syntax-ns#"
   xmlns:svg="http://www.w3.org/2000/svg"
   xmlns="http://www.w3.org/2000/svg"
   xmlns:sodipodi="http://sodipodi.sourceforge.net/DTD/sodipodi-0.dtd"
   xmlns:inkscape="http://www.inkscape.org/namespaces/inkscape"
   width="209.09908"
   height="195.43114"
   viewBox="0 0 55.324132 51.707819"
   version="1.1"
   id="svg8"
   inkscape:version="0.92.2 (5c3e80d, 2017-08-06)"
   sodipodi:docname="logo_color.svg"
   inkscape:export-filename="/home/anxhelo/Files/Design/CutePeaks/logo_color.png"
   inkscape:export-xdpi="96"
   inkscape:export-ydpi="96">
  <defs
     id="defs2" />
  <sodipodi:namedview
     id="base"
     pagecolor="#ffffff"
     bordercolor="#666666"
     borderopacity="1.0"
     inkscape:pageopacity="0"
     inkscape:pageshadow="2"
     inkscape:zoom="0.74199837"
     inkscape:cx="8.0320851"
     inkscape:cy="36.383464"
     inkscape:document-units="px"
     inkscape:current-layer="layer1"
     inkscape:document-rotation="0"
     showgrid="false"
     borderlayer="true"
     inkscape:showpageshadow="true"
     units="px"
     inkscape:pagecheckerboard="false"
     showguides="true"
     inkscape:window-width="1366"
     inkscape:window-height="713"
     inkscape:window-x="0"
     inkscape:window-y="0"
     inkscape:window-maximized="1"
     objecttolerance="10"
     guidetolerance="10"
     inkscape:snap-tangential="true"
     inkscape:snap-perpendicular="true"
     fit-margin-top="0"
     fit-margin-left="0"
     fit-margin-right="0"
     fit-margin-bottom="0">
    <inkscape:grid
       type="xygrid"
       id="grid10"
       dotted="false"
       originx="-188.67053"
       originy="-95.024881" />
  </sodipodi:namedview>
  <metadata
     id="metadata5">
    <rdf:RDF>
      <cc:Work
         rdf:about="">
        <dc:format>image/svg+xml</dc:format>
        <dc:type
           rdf:resource="http://purl.org/dc/dcmitype/StillImage" />
        <dc:title></dc:title>
        <cc:license
           rdf:resource="" />
      </cc:Work>
    </rdf:RDF>
  </metadata>
  <g
     inkscape:label="Layer 1"
     inkscape:groupmode="layer"
     id="layer1"
     transform="translate(-188.67051,-150.2673)">
    <g
       id="g3307"
       transform="matrix(1.4479653,0,0,1.4479653,-92.778924,-66.798206)">
      <g
         id="g905"
         transform="matrix(0.35277777,0,0,-0.35277777,215.48063,162.31896)">
        <path
           d="m 0,0 c 5.51,-6.032 11.734,-12.832 16.454,-13.132 l 32.028,0.351 C 37.221,-0.092 26.078,35.173 13.5,35.173 5.714,35.173 -1.124,21.661 -7.887,8.233 -5.19,5.679 -2.58,2.824 0,0"
           style="fill:#cc399f;fill-opacity:1;fill-rule:nonzero;stroke:none"
           id="path907"
           inkscape:connector-curvature="0" />
      </g>
      <g
         id="g909"
         transform="matrix(0.35277777,0,0,-0.35277777,211.93719,160.91956)">
        <path
           d="m 0,0 c -0.574,0.563 -1.149,1.113 -1.727,1.643 -0.589,0.54 -1.18,1.058 -1.773,1.555 -3.914,3.28 -7.929,5.536 -12.103,5.536 -11.771,0 -21.377,-17.924 -31.834,-26.675 l 29.041,0.318 0.236,0.003 v 0.032 l 4.311,0.047 3.182,0.035 27.485,0.301 C 11.274,-12.693 5.729,-5.622 0,0"
           style="fill:#00c997;fill-opacity:1;fill-rule:nonzero;stroke:none"
           id="path911"
           inkscape:connector-curvature="0" />
      </g>
      <g
         id="g913"
         transform="matrix(0.35277777,0,0,-0.35277777,221.5008,168.5596)">
        <path
           d="m 0,0 c -0.774,-0.049 -2.992,-0.77 -6.859,-6.396 -3.16,-4.598 -6.403,-10.981 -9.538,-17.155 -0.056,-0.109 -0.111,-0.218 -0.166,-0.327 4.439,-4.838 9.001,-8.35 13.769,-8.35 12.091,0 21.898,22.574 32.689,32.581 L -0.001,0.025 Z"
           style="fill:#000000;fill-opacity:1;fill-rule:nonzero;stroke:none"
           id="path915"
           inkscape:connector-curvature="0" />
      </g>
      <g
         id="g917"
         transform="matrix(0.35277777,0,0,-0.35277777,208.7441,168.69052)">
        <path
           d="m 0,0 -3.539,-0.039 c 0.015,-0.01 0.028,-0.021 0.042,-0.031 l -5.12,-0.056 -32.112,-0.353 c 11.25,-12.614 22.383,-47.514 34.949,-47.514 7.216,0 13.617,11.511 19.901,23.796 0.376,0.736 0.751,1.473 1.126,2.211 0.376,0.74 0.752,1.48 1.128,2.218 3.963,7.795 7.914,15.382 12.025,20.048 0.01,0.01 0.019,0.021 0.028,0.032 z"
           style="fill:#29abe2;fill-opacity:1;fill-rule:nonzero;stroke:none"
           id="path919"
           inkscape:connector-curvature="0" />
      </g>
    </g>
  </g>
</svg>
