<?xml version="1.0" encoding="UTF-8" standalone="no"?>
<!-- Created with Inkscape (http://www.inkscape.org/) -->

<svg
   xmlns:dc="http://purl.org/dc/elements/1.1/"
   xmlns:cc="http://creativecommons.org/ns#"
   xmlns:rdf="http://www.w3.org/1999/02/22-rdf-syntax-ns#"
   xmlns:svg="http://www.w3.org/2000/svg"
   xmlns="http://www.w3.org/2000/svg"
   xmlns:xlink="http://www.w3.org/1999/xlink"
   xmlns:sodipodi="http://sodipodi.sourceforge.net/DTD/sodipodi-0.dtd"
   xmlns:inkscape="http://www.inkscape.org/namespaces/inkscape"
   width="1024"
   height="1024"
   viewBox="0 0 1024 1024"
   id="svg4511"
   version="1.1"
   inkscape:version="0.91 r13725"
   sodipodi:docname="icons.svg"
   inkscape:export-filename="/media/sacha/Linux_data/dev/CutePeaks/cutepeaks.png"
   inkscape:export-xdpi="5.625"
   inkscape:export-ydpi="5.625">
  <defs
     id="defs4513">
    <linearGradient
       inkscape:collect="always"
       id="linearGradient4387">
      <stop
         style="stop-color:#ffffff;stop-opacity:1"
         offset="0"
         id="stop4389" />
      <stop
         style="stop-color:#eeeeec;stop-opacity:1"
         offset="1"
         id="stop4391" />
    </linearGradient>
    <linearGradient
       inkscape:collect="always"
       xlink:href="#linearGradient4387"
       id="linearGradient4490"
       gradientUnits="userSpaceOnUse"
       gradientTransform="matrix(0.15753252,0,0,0.15753252,491.22996,598.58272)"
       x1="-2300.7144"
       y1="-656.20923"
       x2="-2418.5715"
       y2="-838.70923" />
    <linearGradient
       inkscape:collect="always"
       xlink:href="#linearGradient4387"
       id="linearGradient5128"
       gradientUnits="userSpaceOnUse"
       gradientTransform="matrix(0.15753252,0,0,0.15753252,491.22996,598.58272)"
       x1="-2300.7144"
       y1="-656.20923"
       x2="-2418.5715"
       y2="-838.70923" />
    <linearGradient
       inkscape:collect="always"
       xlink:href="#linearGradient4688"
       id="linearGradient4425"
       gradientUnits="userSpaceOnUse"
       gradientTransform="matrix(2.2252754,0,0,2.2252754,1028.9009,-1150.6928)"
       x1="-370"
       y1="646.64795"
       x2="-48.57143"
       y2="938.07648" />
    <linearGradient
       inkscape:collect="always"
       id="linearGradient4688">
      <stop
         style="stop-color:#4e679b;stop-opacity:1;"
         offset="0"
         id="stop4690" />
      <stop
         style="stop-color:#204a87;stop-opacity:1"
         offset="1"
         id="stop4692" />
    </linearGradient>
  </defs>
  <sodipodi:namedview
     id="base"
     pagecolor="#ffffff"
     bordercolor="#666666"
     borderopacity="1.0"
     inkscape:pageopacity="0.0"
     inkscape:pageshadow="2"
     inkscape:zoom="0.49497475"
     inkscape:cx="944.35629"
     inkscape:cy="527.23838"
     inkscape:document-units="px"
     inkscape:current-layer="layer1"
     showgrid="false"
     inkscape:showpageshadow="false"
     units="px"
     inkscape:window-width="1920"
     inkscape:window-height="1015"
     inkscape:window-x="1920"
     inkscape:window-y="0"
     inkscape:window-maximized="1" />
  <metadata
     id="metadata4516">
    <rdf:RDF>
      <cc:Work
         rdf:about="">
        <dc:format>image/svg+xml</dc:format>
        <dc:type
           rdf:resource="http://purl.org/dc/dcmitype/StillImage" />
        <dc:title></dc:title>
      </cc:Work>
    </rdf:RDF>
  </metadata>
  <g
     inkscape:label="Layer 1"
     inkscape:groupmode="layer"
     id="layer1"
     transform="translate(0,-28.362188)">
    <path
       style="fill:#eeeeec;fill-opacity:1;stroke:none;stroke-width:2.5999999;stroke-miterlimit:4;stroke-dasharray:none;stroke-dashoffset:0"
       inkscape:transform-center-x="29.321924"
       inkscape:transform-center-y="-16.929029"
       d="m 949.16346,785.24607 c -19.81146,34.3116 -389.2863,247.62833 -428.90781,247.62833 -39.62008,0 -409.09494,-213.31673 -428.904987,-247.62833 -19.811457,-34.31303 -19.811457,-460.94657 0,-495.25959 C 111.16071,255.67486 480.63557,42.358087 520.25565,42.358087 c 39.62151,0 409.09635,213.316773 428.90781,247.628393 19.81005,34.31302 19.81005,460.94656 0,495.25959 z"
       id="path4415-0"
       inkscape:connector-curvature="0"
       inkscape:export-filename="/media/sacha/Linux_data/dev/CutePeaks/cutepeaks.png"
       inkscape:export-xdpi="12.993224"
       inkscape:export-ydpi="12.993224" />
    <path
       inkscape:connector-curvature="0"
       id="path4417"
       d="m 935.88519,777.57998 c -19.15318,33.17165 -376.34988,239.40012 -414.65486,239.40012 -38.30356,0 -395.50166,-206.22847 -414.65344,-239.40012 -19.151783,-33.17306 -19.151783,-445.62995 0,-478.8016 19.15178,-33.17165 376.34988,-239.400092 414.65344,-239.400092 38.30498,0 395.50168,206.228442 414.65486,239.400092 19.15179,33.17165 19.15179,445.62854 0,478.8016 z"
       inkscape:transform-center-y="-16.366435"
       inkscape:transform-center-x="28.347554"
       style="fill:url(#linearGradient4425);fill-opacity:1;stroke:none;stroke-width:2.5999999;stroke-miterlimit:4;stroke-dasharray:none;stroke-dashoffset:0"
       inkscape:export-filename="/media/sacha/Linux_data/dev/CutePeaks/cutepeaks.png"
       inkscape:export-xdpi="12.993224"
       inkscape:export-ydpi="12.993224" />
    <path
       sodipodi:nodetypes="cscsccccccsc"
       inkscape:connector-curvature="0"
       id="path4985"
       d="m 859.54075,590.53381 c -38.1734,2.0228 -57.921,220.96493 -109.6269,220.57229 -49.5868,-0.37654 -69.5061,-194.73899 -108.4082,-215.85549 -47.0218,19.4196 -48.0154,302.48584 -98.8145,302.72854 -53.1986,0.25416 -54.0183,-300.35814 -115.4408,-307.44534 l 213.0385,0 1.9277,0 c 72.4414,0 324.246,0 306.2528,0 m -857.1981,0 336.6599,0 c -46.304,0 -69.4349,221.42779 -122.4841,220.57229 -51.8962,-0.8369 -69.5619,-231.70089 -109.625,-220.57229"
       style="opacity:0.27600002;fill:#2e3436;fill-opacity:1;fill-rule:evenodd;stroke:#2e3436;stroke-width:20;stroke-linecap:butt;stroke-linejoin:miter;stroke-miterlimit:4;stroke-dasharray:none;stroke-opacity:1"
       inkscape:export-filename="/media/sacha/Linux_data/dev/CutePeaks/cutepeaks.png"
       inkscape:export-xdpi="12.993224"
       inkscape:export-ydpi="12.993224" />
    <path
       style="fill:#2a518c;fill-opacity:1;fill-rule:evenodd;stroke:#eeeeec;stroke-width:20;stroke-linecap:butt;stroke-linejoin:miter;stroke-miterlimit:4;stroke-dasharray:none;stroke-opacity:1"
       d="M 861.68359,589.08792 C 823.5102,587.06511 803.76254,368.12301 752.05664,368.51565 702.46989,368.89219 682.55056,563.25469 643.64844,584.37112 596.6267,564.9515 595.63303,281.8853 544.83398,281.6426 491.6354,281.38844 490.81567,582.0007 429.39313,589.08792 l 213.03851,0 1.92774,0 c 72.4414,0 324.24598,0 306.25278,0 m -857.198108,0 336.659888,0 c -46.304,0 -69.43488,-221.42777 -122.4841,-220.57227 -51.89615,0.8369 -69.56191,231.70091 -109.625,220.57227"
       id="path4140"
       inkscape:connector-curvature="0"
       sodipodi:nodetypes="cscsccccccsc"
       inkscape:export-filename="/media/sacha/Linux_data/dev/CutePeaks/cutepeaks.png"
       inkscape:export-xdpi="12.993224"
       inkscape:export-ydpi="12.993224" />
    <path
       inkscape:connector-curvature="0"
       id="path4968"
       d="m -352.26601,610.80771 c 0,0 54.81285,-276.27667 109.62572,-276.27667 54.81285,0 109.6257,276.27667 109.6257,276.27667"
       style="fill:none;fill-rule:evenodd;stroke:#ffffff;stroke-width:20.00000191;stroke-linecap:butt;stroke-linejoin:miter;stroke-miterlimit:4;stroke-dasharray:none;stroke-opacity:1" />
  </g>
</svg>
